<?xml version="1.0"?>
<!DOCTYPE svg PUBLIC "-//W3C//DTD SVG 1.1//EN"
"http://www.w3.org/Graphics/SVG/1.1/DTD/svg11.dtd">
<svg version="1.1" xmlns="http://www.w3.org/2000/svg"
xmlns:xlink="http://www.w3.org/1999/xlink"
width="8in" height="8in"
viewBox="-4 -3 8 6"
preserveAspectRatio="xMidYMid">
<rect x="-3.99" y="-3" width="7.99" height="6" stroke="black" stroke-width="0.005" fill="none"/>
<defs>
<g id = "triangle">
<polygon points="0.5, 0 -0.5, 0 0, -1 "/>
</g>
<g id = "rectangle" fill ="red">
<rect x="-0.5" y="-0.5" width="1" height="1"/>
</g>
<g id = "ownpolygon" fill ="rgb(105,105,105)">
<polygon points="-0.841253532831181, -0.540640817455598 -0.415415013001886, -0.909631995354518 0.142314838273285, -0.989821441880933
0.654860733945285, -0.755749574354258 0.959492973614497, -0.28173255684143 0.959492973614497, 0.281732556841429
0.654860733945285, 0.755749574354258 0.142314838273285, 0.989821441880933 -0.415415013001886, 0.909631995354519
-0.841253532831181, 0.540640817455597 -1, 2.44921270764475E-16">
<animateTransform attributeName = "transform"
type ="rotate" from = "0" to = "360" dur = "7s"
 repeatCount = "indefinite" />

</polygon>
</g>
</defs>


<use xlink:href="#ownpolygon" transform="translate(-1, -0.15) scale(0.65, 0.65)"/>
<use xlink:href="#ownpolygon" transform="translate(1.93, 0.9) scale(0.65, 0.65)"/>
<use xlink:href="#rectangle" transform="translate(0.5, 0.4) rotate(20) scale(3.3, 0.22)"/>
<use xlink:href="#triangle" transform="translate(0.45, 2.9) scale(0.9, 2.5)" fill="blue"/>

<use xlink:href="#ownpolygon" transform="translate(-3.45, -2.45) scale(0.5, 0.5)"/>
<use xlink:href="#ownpolygon" transform="translate(-1, -1.55) scale(0.5, 0.5)"/>
<use xlink:href="#rectangle" transform="translate(-2.2, -2) rotate(20) scale(2.7, 0.18)"/>
<use xlink:href="#triangle" transform="translate(-2.25, -0.23) scale(0.6, 1.8)" fill="purple"/>


<use xlink:href="#ownpolygon" transform="translate(1.42, -2.28) scale(0.45, 0.45)"/>
<use xlink:href="#ownpolygon" transform="translate(3.45, -1.55) scale(0.45, 0.45)"/>
<use xlink:href="#rectangle" transform="translate(2.45, -1.9) rotate(20) scale(2.2, 0.16)"/>
<use xlink:href="#triangle" transform="translate(2.4, -0.62) scale(0.4, 1.3)" fill="green"/>
</svg>